<svg width="120" height="100" viewBox="0 0 120 100" fill="none" xmlns="http://www.w3.org/2000/svg">
<path d="M100 40V30C100 27.3478 98.9464 24.8043 97.0711 22.9289C95.1957 21.0536 92.6522 20 90 20H20C17.3478 20 14.8043 21.0536 12.9289 22.9289C11.0536 24.8043 10 27.3478 10 30V70C10 72.6522 11.0536 75.1957 12.9289 77.0711C14.8043 78.9464 17.3478 80 20 80H90C92.6522 80 95.1957 78.9464 97.0711 77.0711C98.9464 75.1957 100 72.6522 100 70V60H110V40H100ZM45 75L55 55.55L35 50L65 25L60 44.45L80 50L45 75Z" fill="url(#paint0_linear_367_1095)"/>
<defs>
<linearGradient id="paint0_linear_367_1095" x1="10" y1="80" x2="113.148" y2="73.9859" gradientUnits="userSpaceOnUse">
<stop stop-color="#12C2E9"/>
<stop offset="0.526042" stop-color="#C471ED"/>
<stop offset="1" stop-color="#F64F59"/>
</linearGradient>
</defs>
</svg>
