<svg width="61" height="60" viewBox="0 0 61 60" fill="none" xmlns="http://www.w3.org/2000/svg">
<path d="M55.4825 19.875C55.4785 19.6945 55.4542 19.515 55.41 19.34C55.3925 19.2775 55.3575 19.2175 55.335 19.155C55.2825 19.0125 55.235 18.8725 55.16 18.7425C55.12 18.675 55.065 18.62 55.0175 18.555C54.9375 18.4425 54.86 18.3275 54.7625 18.23C54.705 18.175 54.63 18.13 54.5675 18.0775C54.47 17.9975 54.38 17.91 54.2675 17.8425C54.2575 17.835 54.245 17.835 54.2325 17.8275L54.2125 17.8125L31.765 5.3375C31.3941 5.13182 30.977 5.02369 30.5528 5.02326C30.1287 5.02282 29.7114 5.13009 29.34 5.335L6.7875 17.81C6.78 17.8175 6.7725 17.8275 6.76 17.835L6.735 17.845C6.6475 17.895 6.5825 17.9675 6.5 18.0275C6.41 18.095 6.315 18.155 6.235 18.2325C6.16 18.31 6.1025 18.4 6.0375 18.4875C5.97 18.575 5.895 18.6525 5.84 18.7475C5.775 18.855 5.74 18.9775 5.6925 19.095C5.6575 19.1775 5.6125 19.255 5.59 19.345C5.54682 19.5168 5.52251 19.6929 5.5175 19.87C5.515 19.9125 5.5 19.95 5.5 19.995V40C5.5 40.9075 5.9925 41.745 6.7875 42.185L29.2325 54.6525L29.235 54.655L29.24 54.6575L29.29 54.685C29.3975 54.745 29.515 54.7775 29.6275 54.82C29.7075 54.8525 29.785 54.895 29.87 54.9175C30.2849 55.0245 30.7201 55.0245 31.135 54.9175C31.2175 54.895 31.295 54.8525 31.3775 54.82C31.49 54.7775 31.6075 54.7475 31.715 54.685L31.765 54.6575L31.77 54.655L31.7725 54.6525L54.2175 42.185C55.0075 41.745 55.5 40.9075 55.5 40V19.995C55.5 19.9525 55.485 19.9175 55.4825 19.875ZM30.43 29.68L13.145 20.0125L20.05 16.1925L37.135 25.955L30.43 29.68ZM30.55 10.3825L47.8525 20L42.2425 23.1175L25.1675 13.36L30.55 10.3825ZM33 48.2525L33.005 34.055L40.5 29.86V37.5L45.5 35V27.0625L50.5 24.265V38.5275L33 48.2525Z" fill="url(#paint0_linear_367_1041)"/>
<defs>
<linearGradient id="paint0_linear_367_1041" x1="5.5" y1="54.9977" x2="57.1859" y2="53.1887" gradientUnits="userSpaceOnUse">
<stop stop-color="#12C2E9"/>
<stop offset="0.526042" stop-color="#C471ED"/>
<stop offset="1" stop-color="#F64F59"/>
</linearGradient>
</defs>
</svg>
