<svg width="104" height="100" viewBox="0 0 104 100" fill="none" xmlns="http://www.w3.org/2000/svg">
<path d="M78.5413 3.70386H25.458C23.3038 3.70617 21.2385 4.57159 19.7153 6.11021C18.1921 7.64884 17.3353 9.73499 17.333 11.9109V65.5305C17.333 70.0564 20.9773 73.7375 25.458 73.7375H47.6663V82.4917H30.333V91.246H73.6663V82.4917H56.333V73.7375H78.5413C80.6955 73.7352 82.7608 72.8698 84.284 71.3312C85.8073 69.7926 86.664 67.7064 86.6663 65.5305V11.9109C86.664 9.73499 85.8073 7.64884 84.284 6.11021C82.7608 4.57159 80.6955 3.70617 78.5413 3.70386ZM77.9997 64.9833H25.9997V12.4581H77.9997V64.9833Z" fill="url(#paint0_linear_367_1104)"/>
<path d="M52.0003 56.229C61.5597 56.229 69.3337 48.3765 69.3337 38.7206C69.3337 29.0647 61.5597 21.2122 52.0003 21.2122C42.441 21.2122 34.667 29.0647 34.667 38.7206C34.667 48.3765 42.441 56.229 52.0003 56.229ZM52.0003 29.9664C56.78 29.9664 60.667 33.8926 60.667 38.7206C60.667 43.5485 56.78 47.4748 52.0003 47.4748C47.2207 47.4748 43.3337 43.5485 43.3337 38.7206C43.3337 33.8926 47.2207 29.9664 52.0003 29.9664Z" fill="url(#paint1_linear_367_1104)"/>
<defs>
<linearGradient id="paint0_linear_367_1104" x1="17.333" y1="91.2459" x2="89.0368" y2="89.2592" gradientUnits="userSpaceOnUse">
<stop stop-color="#12C2E9"/>
<stop offset="0.526042" stop-color="#C471ED"/>
<stop offset="1" stop-color="#F64F59"/>
</linearGradient>
<linearGradient id="paint1_linear_367_1104" x1="34.667" y1="56.229" x2="70.5034" y2="54.9878" gradientUnits="userSpaceOnUse">
<stop stop-color="#12C2E9"/>
<stop offset="0.526042" stop-color="#C471ED"/>
<stop offset="1" stop-color="#F64F59"/>
</linearGradient>
</defs>
</svg>
