<svg width="596" height="28" viewBox="0 0 596 28" fill="none" xmlns="http://www.w3.org/2000/svg">
<path d="M64.689 8.70666C62.9807 8.70666 61.6389 9.07311 60.2964 9.80461C60.2964 5.89975 60.2965 2.36135 60.4191 1.14148L52.2422 2.60518V3.33739L53.0963 3.45931C54.1936 3.70314 54.5614 4.31272 54.8031 5.77784C55.0491 8.70666 54.9258 24.3268 54.8031 26.8899C56.9998 27.3782 59.319 27.7447 61.6382 27.7447C68.1062 27.7447 72.011 23.7172 72.011 17.3712C72.011 12.3684 68.8384 8.70666 64.689 8.70666ZM61.8821 26.4015C61.3937 26.4015 60.7827 26.4015 60.4177 26.2803C60.295 24.572 60.1738 17.3712 60.295 11.0259C61.0272 10.7814 61.5149 10.6594 62.1259 10.6594C64.8123 10.6594 66.2767 13.8321 66.2767 17.7362C66.276 22.6192 64.4451 26.4015 61.8821 26.4015ZM21.4882 1.62915H0.00967407V2.7271L1.23025 2.84902C2.81587 3.09285 3.42687 4.06889 3.67 6.38742C4.03716 10.7806 3.91453 18.7137 3.67 22.4952C3.42616 24.8145 2.81658 25.9131 1.23025 26.0336L0.00967407 26.2789V27.2549H13.7997V26.2789L12.3352 26.0336C10.7489 25.9124 10.1386 24.8145 9.8948 22.4952C9.77218 20.9082 9.65026 18.3451 9.65026 15.1732L12.5791 15.2951C14.4099 15.2951 15.2634 16.7595 15.6298 18.8335H16.7285V10.1718H15.6298C15.2627 12.2465 14.4099 13.7102 12.5791 13.7102L9.65096 13.8328C9.65096 9.6834 9.77288 5.77854 9.8955 3.46001H14.1661C17.4621 3.46001 19.1703 5.534 20.3902 9.19573L21.6108 8.82928L21.4882 1.62915Z" fill="white" fill-opacity="0.6"/>
<path d="M28.444 8.4629C34.5461 8.4629 37.5969 12.6123 37.5969 18.1035C37.5969 23.3508 34.1797 27.7455 28.0775 27.7455C21.976 27.7455 18.9253 23.5954 18.9253 18.1035C18.9253 12.8561 22.3418 8.4629 28.444 8.4629ZM28.0775 9.68348C25.3925 9.68348 24.6603 13.3445 24.6603 18.1035C24.6603 22.7406 25.8809 26.5235 28.322 26.5235C31.1268 26.5235 31.8604 22.8625 31.8604 18.1035C31.8604 13.4664 30.6413 9.68348 28.0775 9.68348ZM73.5961 18.2261C73.5961 13.2226 76.7688 8.4629 82.9929 8.4629C88.1169 8.4629 90.5588 12.2466 90.5588 17.2494H79.2092C79.0866 21.7645 81.2832 25.0598 85.6772 25.0598C87.63 25.0598 88.606 24.5728 89.8273 23.718L90.3142 24.3276C89.0937 26.0358 86.4094 27.7455 82.9929 27.7455C77.501 27.7448 73.5961 23.8399 73.5961 18.2261ZM79.2092 15.9076L84.945 15.785C84.945 13.3445 84.5785 9.68348 82.5045 9.68348C80.4305 9.68348 79.3305 13.1 79.2092 15.9076ZM105.083 9.43965C103.619 8.82865 101.667 8.4629 99.47 8.4629C94.9555 8.4629 92.1472 11.1472 92.1472 14.3205C92.1472 17.4939 94.2198 18.8357 97.1522 19.8124C100.202 20.9097 101.057 21.7645 101.057 23.2289C101.057 24.6933 99.9584 26.0351 98.0056 26.0351C95.6877 26.0351 93.9781 24.6933 92.6363 21.0316L91.7815 21.2768L91.9041 26.6461C93.3685 27.2557 96.0528 27.7448 98.372 27.7448C103.132 27.7448 106.183 25.3029 106.183 21.5207C106.183 18.9576 104.84 17.4939 101.667 16.2726C98.2494 14.9308 97.0302 14.0767 97.0302 12.4897C97.0302 10.9034 98.1303 9.80469 99.5947 9.80469C101.79 9.80469 103.254 11.1472 104.354 14.4425L105.208 14.1986L105.083 9.43965ZM53.4609 8.95128C51.3869 7.73211 47.7251 8.34099 45.7731 12.7349L45.8943 8.46361L37.7188 10.0499V10.7821L38.5729 10.9041C39.6723 11.0267 40.1592 11.6363 40.2819 13.2233C40.5257 16.1521 40.4038 21.2783 40.2819 23.8406C40.1592 25.3036 39.6723 26.0358 38.5729 26.1584L37.7188 26.2811V27.2571H49.0676V26.2811L47.6032 26.1584C46.3833 26.0358 46.0169 25.3036 45.8943 23.8406C45.6504 21.5214 45.6504 16.8843 45.7731 13.9555C46.3826 13.1007 49.0676 12.3692 51.5081 13.9555L53.4609 8.95128Z" fill="white" fill-opacity="0.6"/>
<g clip-path="url(#clip0_367_1063)">
<path d="M222.207 13.2851V10.9797H219.35V7.39576L219.254 7.42544L216.57 8.24816L216.517 8.26426V10.9798H212.281V9.46703C212.281 8.76262 212.438 8.22356 212.748 7.86406C213.056 7.50888 213.496 7.3283 214.057 7.3283C214.461 7.3283 214.878 7.42353 215.299 7.61134L215.404 7.65851V5.23066L215.355 5.2124C214.962 5.07114 214.429 5 213.768 5C212.934 5 212.177 5.18171 211.517 5.54185C210.856 5.90249 210.336 6.41732 209.972 7.0719C209.609 7.72572 209.425 8.48085 209.425 9.31651V10.9797H207.435V13.2851H209.425V22.9971H212.281V13.2851H216.517V19.4569C216.517 21.9987 217.714 23.2868 220.074 23.2868C220.462 23.2868 220.87 23.2413 221.287 23.1522C221.711 23.0606 222 22.9692 222.17 22.8715L222.207 22.8492V20.5226L222.091 20.5995C221.936 20.703 221.743 20.7876 221.517 20.8505C221.29 20.9145 221.1 20.9466 220.953 20.9466C220.4 20.9466 219.991 20.7974 219.737 20.5028C219.48 20.2055 219.35 19.6858 219.35 18.9587V13.2851H222.207ZM201.057 20.947C200.02 20.947 199.203 20.6026 198.627 19.9242C198.047 19.2423 197.754 18.2702 197.754 17.0351C197.754 15.7608 198.047 14.7635 198.627 14.0696C199.203 13.3803 200.013 13.0304 201.034 13.0304C202.024 13.0304 202.812 13.3646 203.377 14.0241C203.945 14.687 204.233 15.6764 204.233 16.9655C204.233 18.2705 203.962 19.2729 203.428 19.9434C202.897 20.6089 202.1 20.947 201.057 20.947ZM201.184 10.6902C199.206 10.6902 197.635 11.2709 196.515 12.4161C195.396 13.5614 194.828 15.1463 194.828 17.1273C194.828 19.0089 195.382 20.5223 196.475 21.6249C197.568 22.7279 199.055 23.2866 200.895 23.2866C202.812 23.2866 204.351 22.6978 205.471 21.5368C206.591 20.377 207.158 18.807 207.158 16.8723C207.158 14.9613 206.625 13.4366 205.575 12.3414C204.525 11.2456 203.047 10.6902 201.184 10.6902ZM190.223 10.6902C188.878 10.6902 187.765 11.035 186.915 11.7148C186.059 12.3987 185.625 13.2956 185.625 14.3809C185.625 14.9451 185.719 15.4462 185.903 15.8713C186.089 16.2977 186.376 16.6732 186.757 16.9883C187.135 17.3009 187.719 17.6283 188.493 17.9614C189.144 18.2296 189.629 18.4565 189.937 18.6353C190.238 18.8105 190.452 18.9867 190.573 19.1582C190.69 19.3261 190.749 19.5559 190.749 19.8395C190.749 20.6468 190.146 21.0397 188.904 21.0397C188.444 21.0397 187.918 20.9433 187.343 20.7534C186.771 20.5663 186.232 20.2923 185.744 19.941L185.625 19.8558V22.6109L185.669 22.6312C186.073 22.8182 186.582 22.9758 187.183 23.0998C187.782 23.2239 188.327 23.2871 188.8 23.2871C190.26 23.2871 191.436 22.9406 192.293 22.2568C193.157 21.5682 193.594 20.6501 193.594 19.5273C193.594 18.7172 193.359 18.0226 192.895 17.4623C192.433 16.9067 191.633 16.3965 190.517 15.9456C189.628 15.588 189.058 15.2911 188.823 15.0633C188.596 14.8431 188.481 14.5318 188.481 14.1376C188.481 13.7881 188.623 13.5081 188.915 13.2814C189.209 13.0535 189.618 12.9376 190.13 12.9376C190.606 12.9376 191.093 13.0129 191.577 13.1605C192.061 13.3081 192.486 13.5058 192.841 13.7477L192.958 13.8275V11.214L192.913 11.1948C192.586 11.0541 192.154 10.9338 191.63 10.8362C191.108 10.7392 190.635 10.6902 190.223 10.6902ZM178.179 20.947C177.143 20.947 176.325 20.6026 175.749 19.9242C175.17 19.2423 174.877 18.2705 174.877 17.0351C174.877 15.7608 175.17 14.7635 175.75 14.0696C176.326 13.3803 177.135 13.0304 178.157 13.0304C179.146 13.0304 179.935 13.3646 180.5 14.0241C181.067 14.687 181.355 15.6764 181.355 16.9655C181.355 18.2705 181.084 19.2729 180.55 19.9434C180.02 20.6089 179.223 20.947 178.179 20.947ZM178.307 10.6902C176.328 10.6902 174.757 11.2709 173.638 12.4161C172.519 13.5614 171.951 15.1463 171.951 17.1273C171.951 19.0096 172.505 20.5223 173.598 21.6249C174.691 22.7279 176.178 23.2866 178.017 23.2866C179.934 23.2866 181.474 22.6978 182.594 21.5368C183.713 20.377 184.281 18.807 184.281 16.8723C184.281 14.9613 183.748 13.4366 182.698 12.3414C181.647 11.2456 180.17 10.6902 178.307 10.6902ZM167.615 13.0609V10.9797H164.794V22.9968H167.615V16.8496C167.615 15.8043 167.852 14.9456 168.318 14.297C168.779 13.6561 169.393 13.3313 170.143 13.3313C170.397 13.3313 170.682 13.3733 170.991 13.4564C171.297 13.5389 171.519 13.6286 171.649 13.7229L171.768 13.809V10.9592L171.722 10.9395C171.459 10.8277 171.088 10.7712 170.617 10.7712C169.908 10.7712 169.274 10.9995 168.73 11.4489C168.253 11.8439 167.909 12.3855 167.645 13.0609H167.615ZM159.741 10.6902C158.447 10.6902 157.292 10.9683 156.31 11.5165C155.326 12.0659 154.565 12.8504 154.047 13.8478C153.532 14.8429 153.27 16.0052 153.27 17.3014C153.27 18.4368 153.524 19.4788 154.025 20.3972C154.527 21.317 155.237 22.0366 156.137 22.5358C157.034 23.0342 158.072 23.287 159.221 23.287C160.562 23.287 161.707 23.0184 162.625 22.4887L162.662 22.4674V19.8776L162.543 19.9644C162.127 20.2678 161.663 20.51 161.163 20.6845C160.664 20.8589 160.209 20.947 159.811 20.947C158.704 20.947 157.815 20.5999 157.17 19.9157C156.523 19.2305 156.196 18.2684 156.196 17.0578C156.196 15.8396 156.537 14.8528 157.211 14.1246C157.883 13.3987 158.773 13.0304 159.857 13.0304C160.785 13.0304 161.688 13.345 162.543 13.9664L162.662 14.0525V11.3237L162.623 11.3022C162.302 11.1217 161.863 10.9727 161.318 10.8597C160.776 10.747 160.245 10.6902 159.741 10.6902ZM151.327 10.9798H148.505V22.9968H151.327V10.9798ZM149.945 5.86051C149.481 5.86051 149.076 6.01889 148.743 6.33274C148.409 6.64748 148.239 7.04375 148.239 7.51141C148.239 7.97172 148.407 8.36076 148.738 8.66713C149.066 8.97261 149.473 9.12744 149.945 9.12744C150.417 9.12744 150.825 8.97261 151.158 8.66764C151.493 8.36076 151.663 7.97185 151.663 7.51141C151.663 7.06011 151.497 6.66789 151.172 6.34542C150.846 6.02359 150.433 5.86051 149.945 5.86051ZM142.905 10.0932V22.9968H145.785V6.22838H141.8L136.734 18.6835L131.819 6.22838H127.671V22.9967H130.377V10.0919H130.47L135.661 22.9968H137.703L142.813 10.0932H142.905Z" fill="white" fill-opacity="0.6"/>
</g>
<g clip-path="url(#clip1_367_1063)">
<path d="M262.253 0.014086C262.253 0.00146484 257.04 0.014086 257.04 0.014086C249.324 0.014086 243.069 6.2759 243.069 14C243.069 21.7241 249.324 27.9859 257.04 27.9859L266.842 27.9777C269.304 27.9777 271.3 25.995 271.3 23.5301L271.305 14.9997L278.08 25.696C278.996 27.0841 280.569 27.9998 282.355 27.9998C285.184 27.9998 287.476 25.7048 287.476 22.8738L287.475 14.9997L294.249 25.6959C295.166 27.084 296.738 27.9997 298.525 27.9997C301.353 27.9997 303.646 25.7047 303.646 22.8737L303.644 0.00146484H300.158V22.8739C300.158 23.7769 299.427 24.509 298.525 24.509C297.961 24.509 297.464 24.2232 297.17 23.7881L285.112 4.77541C285.038 4.66661 284.93 4.5846 284.805 4.54136C284.681 4.49813 284.546 4.49594 284.42 4.53511C284.294 4.57429 284.184 4.65278 284.105 4.7591C284.027 4.86542 283.985 4.994 283.985 5.12603L283.989 22.874C283.989 23.777 283.258 24.5091 282.356 24.5091C281.792 24.5091 281.295 24.2232 281.001 23.7882L268.943 4.77541C268.868 4.66663 268.761 4.58464 268.636 4.54142C268.511 4.49819 268.376 4.49601 268.25 4.53518C268.124 4.57436 268.014 4.65283 267.936 4.75914C267.858 4.86544 267.816 4.99401 267.816 5.12603L267.813 23.5302C267.813 24.0672 267.378 24.5023 266.842 24.5023L257.04 24.495C251.25 24.4949 246.556 19.7961 246.556 14C246.556 8.2039 251.25 3.50497 257.04 3.50497L262.253 3.50112V0.014086Z" fill="white" fill-opacity="0.6"/>
<path d="M262.816 20.0121C262.947 20.0121 263.074 19.9597 263.167 19.8665C263.26 19.7733 263.312 19.6468 263.312 19.515L263.314 5.12591C263.313 2.29509 265.606 0 268.434 0C270.227 0 271.805 0.922332 272.719 2.31881L279.471 12.9201L279.483 5.126C279.483 2.29509 281.775 0 284.603 0C286.396 0 287.974 0.922332 288.889 2.31881L295.64 12.9201V0.00152171H299.15L299.143 22.874C299.143 23.0038 299.102 23.1304 299.027 23.2357C298.951 23.341 298.844 23.4197 298.721 23.4608C298.598 23.5018 298.465 23.5031 298.341 23.4644C298.217 23.4257 298.109 23.349 298.031 23.2451L285.958 4.21181C285.664 3.77696 285.167 3.49097 284.603 3.49097C283.701 3.49097 282.97 4.223 282.97 5.126L282.974 22.874C282.974 23.0038 282.933 23.1304 282.857 23.2356C282.781 23.3409 282.674 23.4197 282.551 23.4607C282.428 23.5018 282.295 23.503 282.172 23.4643C282.048 23.4257 281.939 23.349 281.861 23.2451L269.789 4.21181C269.495 3.77696 268.998 3.49097 268.434 3.49097C267.532 3.49097 266.801 4.223 266.801 5.126L266.808 23.0146C266.808 23.1465 266.756 23.2729 266.663 23.3662C266.57 23.4594 266.443 23.5118 266.312 23.5118L257.041 23.5099C251.811 23.5099 247.572 19.2349 247.572 14.0001C247.572 8.76529 251.811 4.49019 257.041 4.49019C257.041 4.49019 262.254 4.46987 262.254 4.49019V8.01634L257.041 8.0124C253.737 8.0124 251.059 10.6932 251.059 14.0001C251.059 17.3069 253.737 20.0189 257.041 20.0189L262.816 20.0121Z" fill="white" fill-opacity="0.6"/>
</g>
<g clip-path="url(#clip2_367_1063)">
<path d="M334.283 0.00244141H335.051C337.715 0.0600148 340.336 1.12512 342.218 3.01065C341.523 3.71592 340.813 4.39241 340.133 5.09768C339.076 4.14772 337.802 3.41366 336.412 3.15458C334.356 2.72278 332.14 3.1114 330.417 4.27726C328.535 5.5007 327.261 7.57334 326.986 9.78991C326.682 11.9777 327.304 14.2806 328.738 15.979C330.113 17.6343 332.213 18.6706 334.385 18.7426C336.412 18.8577 338.526 18.2388 340.003 16.8283C341.161 15.8351 341.697 14.3238 341.87 12.8557C339.467 12.8557 337.063 12.8701 334.66 12.8557V9.89066H344.781C345.302 13.0716 344.549 16.6555 342.116 18.9297C340.495 20.5417 338.251 21.4917 335.963 21.6788C333.748 21.8947 331.46 21.4773 329.491 20.4122C327.131 19.16 325.248 17.0442 324.322 14.5541C323.453 12.2656 323.439 9.67476 324.249 7.37183C324.988 5.2704 326.407 3.41366 328.231 2.11826C329.983 0.837255 332.111 0.131981 334.283 0.00244141Z" fill="white" fill-opacity="0.6"/>
<path d="M392.344 0.750977H395.443V21.3047C394.415 21.3047 393.372 21.319 392.344 21.2903C392.359 14.4534 392.344 7.6022 392.344 0.750977Z" fill="white" fill-opacity="0.6"/>
<path d="M351.673 7.8756C353.584 7.51577 355.655 7.91878 357.233 9.05586C358.666 10.0634 359.665 11.6467 359.969 13.3739C360.36 15.3745 359.868 17.5623 358.565 19.1456C357.16 20.916 354.858 21.8659 352.614 21.722C350.558 21.6068 348.56 20.5849 347.344 18.9153C345.968 17.0729 345.635 14.5397 346.388 12.3807C347.141 10.0634 349.269 8.29301 351.673 7.8756ZM352.107 10.6103C351.325 10.8118 350.601 11.258 350.08 11.8913C348.676 13.561 348.762 16.2813 350.312 17.8358C351.195 18.7282 352.527 19.1456 353.758 18.9009C354.902 18.6994 355.901 17.9365 356.451 16.929C357.406 15.2162 357.131 12.8557 355.669 11.5171C354.728 10.6535 353.352 10.2937 352.107 10.6103Z" fill="white" fill-opacity="0.6"/>
<path d="M367.021 7.87569C369.207 7.45828 371.596 8.0628 373.232 9.58849C375.896 11.9634 376.186 16.4109 373.913 19.1457C372.537 20.8729 370.307 21.8228 368.106 21.7221C366.007 21.6645 363.937 20.6282 362.691 18.9154C361.287 17.0298 360.983 14.439 361.779 12.2369C362.575 9.99151 364.66 8.2787 367.021 7.87569ZM367.455 10.6104C366.673 10.8119 365.949 11.2581 365.428 11.877C364.038 13.5179 364.096 16.195 365.587 17.7639C366.47 18.6995 367.846 19.1601 369.12 18.901C370.249 18.6851 371.263 17.9366 371.813 16.9291C372.754 15.2019 372.479 12.8414 371.002 11.5028C370.061 10.6392 368.686 10.2938 367.455 10.6104Z" fill="white" fill-opacity="0.6"/>
<path d="M380.037 8.71046C381.702 7.67414 383.918 7.38627 385.713 8.27866C386.278 8.52335 386.741 8.94075 387.19 9.35816C387.204 8.96954 387.19 8.56653 387.204 8.16351C388.174 8.17791 389.145 8.16351 390.129 8.17791V20.8728C390.115 22.7871 389.622 24.8166 388.232 26.2128C386.712 27.7528 384.381 28.2278 382.281 27.9112C380.037 27.5801 378.083 25.9537 377.214 23.8954C378.083 23.478 378.995 23.147 379.892 22.7584C380.399 23.9386 381.427 24.9461 382.716 25.1764C384.004 25.4067 385.496 25.0901 386.336 24.025C387.233 22.9311 387.233 21.4342 387.19 20.0956C386.524 20.7433 385.756 21.319 384.83 21.5349C382.817 22.0963 380.602 21.4054 379.053 20.0524C377.489 18.6994 376.562 16.6124 376.649 14.5398C376.693 12.1936 378.025 9.93389 380.037 8.71046ZM383.034 10.5528C382.151 10.6967 381.326 11.1861 380.761 11.8626C379.4 13.4747 379.4 16.0511 380.776 17.6343C381.558 18.5699 382.817 19.0881 384.033 18.9585C385.177 18.8434 386.234 18.1237 386.799 17.1306C387.755 15.4465 387.595 13.158 386.307 11.6899C385.51 10.7831 384.236 10.3369 383.034 10.5528Z" fill="white" fill-opacity="0.6"/>
<path d="M399.164 9.44447C400.902 7.83242 403.58 7.28547 405.81 8.13468C407.924 8.92631 409.271 10.927 409.951 12.9852C406.809 14.2806 403.682 15.5616 400.54 16.857C400.974 17.6775 401.64 18.4259 402.538 18.7282C403.798 19.1744 405.303 19.016 406.36 18.1812C406.78 17.8646 407.113 17.4472 407.432 17.0442C408.228 17.5767 409.025 18.0949 409.821 18.6274C408.692 20.3114 406.795 21.4917 404.753 21.6788C402.495 21.9523 400.091 21.0887 398.629 19.3327C396.225 16.5692 396.457 11.9345 399.164 9.44447ZM400.714 12.1072C400.221 12.8125 400.019 13.6761 400.033 14.5253C402.133 13.6617 404.232 12.7981 406.331 11.9201C405.984 11.1141 405.144 10.6247 404.29 10.4952C402.914 10.2505 401.481 10.9846 400.714 12.1072Z" fill="white" fill-opacity="0.6"/>
</g>
<path d="M512.703 10.21V10.4207C512.703 10.4207 517.339 10.446 517.322 10.4207C517.322 8.3254 517.431 5.59998 512.395 5.59998H497.216V11.5621C497.216 13.2225 497.968 16.0447 501.896 16.0447H512.849V16.9804C512.849 18.05 512.749 18.522 510.69 18.522H502.591C501.651 18.522 501.727 17.7386 501.727 17.7386V17.4451H497.063V18.7609C497.063 20.2647 497.68 22.3997 501.161 22.3997H513.175C515.443 22.3997 517.895 21.5514 517.895 18.6238V15.8575C517.895 14.1882 517.498 12.0447 513.698 12.0447H505.103C502.615 12.0447 502.227 11.4682 502.227 10.3415V9.47447H511.873C512.204 9.47415 512.703 9.6086 512.703 10.21ZM454.201 15.199C454.201 16.2698 453.985 17.028 453.559 17.4703C453.131 17.9158 452.396 18.1339 451.353 18.1339H446.296C445.253 18.1339 444.522 17.9149 444.092 17.4703C443.661 17.0274 443.449 16.2692 443.449 15.199V5.60477H438.351V16.3005C438.351 18.3818 438.901 19.923 440.003 20.9114C441.108 21.9098 442.832 22.4 445.171 22.4H459.3L459.306 5.60477H454.201L454.201 15.199ZM481.71 13.7747C482.569 13.5419 483.194 13.1682 483.581 12.6649C483.974 12.1686 484.167 11.2776 484.167 9.97235C484.167 8.35766 483.689 7.23191 482.736 6.58489C481.776 5.93882 480.239 5.60477 478.125 5.60477H463.439V22.4H479.689C481.31 22.4 482.57 22.0809 483.444 21.4575C484.325 20.8271 484.761 19.511 484.761 17.8283C484.761 16.5394 484.54 15.588 484.075 14.9739C483.624 14.3454 482.827 13.9513 481.71 13.7747ZM468.524 9.47415H477.57C478.565 9.47415 479.065 9.91614 479.065 10.7851C479.065 11.2677 478.948 11.7202 478.699 11.9166C478.453 12.1095 478.08 12.1989 477.57 12.1989H468.524V9.47415ZM479.065 18.263C478.76 18.4383 478.302 18.5226 477.687 18.5226H468.524V15.6343H477.687C478.287 15.6343 478.741 15.7387 479.058 15.9447C479.37 16.1456 479.526 16.6167 479.526 17.1433C479.526 17.5987 479.379 18.0809 479.065 18.263ZM488.051 5.60477H493.152V22.4H488.051V5.60477ZM546.621 22.3997H551.716V16.9574H563.418V12.6863H551.716V9.86185H563.992V5.60477H546.621V22.3997ZM565.911 5.60477V9.83758H573.078V22.3997H578.184V9.83758H585.358V5.60477H565.911ZM527.851 5.60477C524.664 5.60477 523.492 6.08572 522.362 6.90233C521.228 7.71638 520.528 9.13179 520.528 11.4235V16.3877C520.528 18.6973 521.124 20.2836 522.325 21.134C523.529 21.9874 525.115 22.3993 527.851 22.3993H535.588C538.325 22.3993 539.765 22.0289 540.977 21.1628C542.175 20.3098 542.731 18.9806 542.731 16.3877V5.60477H527.851ZM537.586 14.963C537.586 16.3404 537.451 16.9507 537.019 17.409C536.59 17.8676 535.849 18.1343 534.688 18.1343H528.551C527.228 18.1343 526.594 17.8347 526.219 17.3965C525.841 16.9574 525.636 16.2047 525.636 14.804V13.0098C525.636 11.8633 525.856 11.1747 526.287 10.6452C526.727 10.1071 527.567 9.84109 528.823 9.84109H537.585L537.586 14.963Z" fill="white" fill-opacity="0.6"/>
<defs>
<clipPath id="clip0_367_1063">
<rect width="96" height="28" fill="white" transform="translate(127.059)"/>
</clipPath>
<clipPath id="clip1_367_1063">
<rect width="60.597" height="28" fill="white" transform="translate(243.059)"/>
</clipPath>
<clipPath id="clip2_367_1063">
<rect width="86.2951" height="28" fill="white" transform="translate(323.656)"/>
</clipPath>
</defs>
</svg>
