<svg width="328" height="48" viewBox="0 0 328 48" fill="none" xmlns="http://www.w3.org/2000/svg">
<g clip-path="url(#clip0_367_1141)">
<path d="M41.6842 10.1054C43.0243 10.1054 44.3094 10.6378 45.257 11.5853C46.2045 12.5329 46.7368 13.818 46.7368 15.1581V32.8423C46.7368 34.1823 46.2045 35.4675 45.257 36.415C44.3094 37.3626 43.0243 37.8949 41.6842 37.8949H6.31579C4.97575 37.8949 3.69059 37.3626 2.74304 36.415C1.79549 35.4675 1.26316 34.1823 1.26316 32.8423V15.1581C1.26316 13.818 1.79549 12.5329 2.74304 11.5853C3.69059 10.6378 4.97575 10.1054 6.31579 10.1054H41.6842ZM41.6842 8.84229H6.31579C4.64074 8.84229 3.03429 9.5077 1.84985 10.6921C0.665412 11.8766 0 13.483 0 15.1581L0 32.8423C0 34.5173 0.665412 36.1238 1.84985 37.3082C3.03429 38.4927 4.64074 39.1581 6.31579 39.1581H41.6842C43.3593 39.1581 44.9657 38.4927 46.1501 37.3082C47.3346 36.1238 48 34.5173 48 32.8423V15.1581C48 13.483 47.3346 11.8766 46.1501 10.6921C44.9657 9.5077 43.3593 8.84229 41.6842 8.84229Z" fill="black" fill-opacity="0.4"/>
<path d="M23.5705 20.8423H22.7368L20.8547 24.8718L18.9474 20.8423H16.4211V26.1854L13.9958 20.8423H11.5958L8.8421 27.1581H10.7242L11.2926 25.756H14.2484L14.8547 27.1581H18V22.5981L20.1095 27.1581H21.6379L23.5705 22.977V27.1581H25.2632V20.8423H23.5705ZM11.8863 24.316L12.7326 22.2191L13.6295 24.316H11.8863Z" fill="black" fill-opacity="0.4"/>
<path d="M39.1579 20.8423H36.9348L35.1411 22.737L33.3853 20.8423H26.4253V27.1581H33.2463L35.1158 25.1623L36.9348 27.1581H39.1579L36.24 24.0002L39.1579 20.8423ZM31.579 26.5265V25.7054H28.0548V24.7075H31.579V23.2802H28.0548V22.2823H31.579V21.3349L34.0169 24.0002L31.579 26.5265Z" fill="black" fill-opacity="0.4"/>
</g>
<g clip-path="url(#clip1_367_1141)">
<path d="M97.6842 10.1054C99.0243 10.1054 100.309 10.6378 101.257 11.5853C102.205 12.5329 102.737 13.818 102.737 15.1581V32.8423C102.737 34.1823 102.205 35.4675 101.257 36.415C100.309 37.3626 99.0243 37.8949 97.6842 37.8949H62.3158C60.9757 37.8949 59.6906 37.3626 58.743 36.415C57.7955 35.4675 57.2632 34.1823 57.2632 32.8423V15.1581C57.2632 13.818 57.7955 12.5329 58.743 11.5853C59.6906 10.6378 60.9757 10.1054 62.3158 10.1054H97.6842ZM97.6842 8.84229H62.3158C60.6407 8.84229 59.0343 9.5077 57.8499 10.6921C56.6654 11.8766 56 13.483 56 15.1581V32.8423C56 34.5173 56.6654 36.1238 57.8499 37.3082C59.0343 38.4927 60.6407 39.1581 62.3158 39.1581H97.6842C99.3593 39.1581 100.966 38.4927 102.15 37.3082C103.335 36.1238 104 34.5173 104 32.8423V15.1581C104 13.483 103.335 11.8766 102.15 10.6921C100.966 9.5077 99.3593 8.84229 97.6842 8.84229Z" fill="black" fill-opacity="0.4"/>
<path d="M70.7284 19.5411C70.5592 19.7603 70.3405 19.9363 70.0903 20.0549C69.84 20.1734 69.5653 20.2311 69.2884 20.2232C69.2577 19.6774 69.4438 19.1417 69.8063 18.7326C70.1688 18.3121 70.6808 18.0493 71.2337 18C71.2705 18.5596 71.0895 19.1118 70.7284 19.5411ZM71.2211 20.3368C70.4253 20.3368 69.7558 20.7916 69.3769 20.7916C68.9979 20.7916 68.4169 20.3621 67.7853 20.3747C67.3767 20.3828 66.9775 20.4979 66.6273 20.7084C66.2771 20.919 65.9882 21.2177 65.7895 21.5747C65.4697 22.3702 65.3575 23.234 65.4636 24.0847C65.5696 24.9355 65.8904 25.7453 66.3958 26.4379C66.8 27.0316 67.2927 27.7011 67.9242 27.7011C68.5558 27.7011 68.7706 27.3095 69.5032 27.3095C70.2358 27.3095 70.4506 27.7011 71.0948 27.6884C71.739 27.6758 72.1684 27.0947 72.5727 26.5011C72.8633 26.0827 73.089 25.6227 73.2421 25.1368C72.8655 24.9667 72.546 24.6914 72.3219 24.3441C72.0979 23.9968 71.9788 23.5922 71.979 23.1789C71.9847 22.8114 72.0825 22.4511 72.2634 22.1312C72.4444 21.8112 72.7027 21.5417 73.0148 21.3474C72.8148 21.061 72.5509 20.8251 72.2439 20.6585C71.937 20.4919 71.5954 20.399 71.2463 20.3874L71.2211 20.3368ZM75.8316 18.7326V27.5747H77.2211V24.5305H79.1284C79.5207 24.552 79.9131 24.4912 80.2804 24.3521C80.6477 24.2129 80.9819 23.9984 81.2615 23.7225C81.541 23.4465 81.7597 23.1151 81.9036 22.7496C82.0475 22.384 82.1133 21.9925 82.0969 21.6C82.1168 21.2116 82.055 20.8232 81.9154 20.4602C81.7759 20.0971 81.5616 19.7674 81.2866 19.4924C81.0116 19.2173 80.6818 19.0031 80.3188 18.8635C79.9557 18.724 79.5674 18.6621 79.179 18.6821L75.8316 18.7326ZM77.2211 19.8947H78.7369C78.9819 19.8623 79.2311 19.8848 79.4664 19.9605C79.7017 20.0362 79.9172 20.1633 80.0973 20.3326C80.2775 20.5018 80.4177 20.709 80.508 20.9391C80.5982 21.1693 80.6361 21.4166 80.619 21.6632C80.6364 21.911 80.5983 22.1595 80.5074 22.3907C80.4164 22.6219 80.275 22.8298 80.0934 22.9993C79.9118 23.1688 79.6946 23.2956 79.4577 23.3704C79.2208 23.4452 78.9702 23.4661 78.7242 23.4316H77.1958L77.2211 19.8947ZM84.6232 27.7011C85.0334 27.714 85.4395 27.615 85.7977 27.4147C86.156 27.2145 86.453 26.9204 86.6569 26.5642V27.6253H87.92V23.2042C87.92 21.9411 86.8969 21.0821 85.3053 21.0821C84.708 21.0243 84.1115 21.1997 83.6406 21.5717C83.1697 21.9437 82.861 22.4834 82.779 23.0779H84.0421C84.1209 22.807 84.2881 22.5703 84.517 22.4055C84.7459 22.2407 85.0234 22.1572 85.3053 22.1684C86.1516 22.1684 86.5684 22.56 86.5684 23.2926V23.7853L84.8379 23.8863C83.2337 23.9874 82.3116 24.6442 82.3116 25.7811C82.3203 26.0608 82.3888 26.3355 82.5126 26.5865C82.6364 26.8375 82.8125 27.0591 83.0292 27.2362C83.2459 27.4134 83.498 27.5421 83.7686 27.6135C84.0392 27.685 84.322 27.6976 84.5979 27.6505L84.6232 27.7011ZM85.0021 26.64C84.2569 26.64 83.739 26.2863 83.739 25.7432C83.739 25.2 84.1937 24.8589 85.0021 24.8084L86.5432 24.7074V25.2126C86.5109 25.6002 86.3297 25.9601 86.0376 26.2169C85.7456 26.4736 85.3653 26.6072 84.9769 26.5895L85.0021 26.64ZM89.6758 30.0505C91.0274 30.0505 91.659 29.5326 92.2021 27.9789L94.6274 21.1705H93.2127L91.5832 26.4253L89.9537 21.1705H88.4758L90.8253 27.6505L90.699 28.0421C90.6556 28.3142 90.5127 28.5606 90.2979 28.7333C90.0832 28.906 89.812 28.9928 89.5369 28.9768H89.1327V30.0379C89.306 30.0388 89.4792 30.0261 89.6506 30L89.6758 30.0505Z" fill="black" fill-opacity="0.4"/>
</g>
<g clip-path="url(#clip2_367_1141)">
<path d="M153.684 10.1054C155.024 10.1054 156.309 10.6378 157.257 11.5853C158.205 12.5329 158.737 13.818 158.737 15.1581V32.8423C158.737 34.1823 158.205 35.4675 157.257 36.415C156.309 37.3626 155.024 37.8949 153.684 37.8949H118.316C116.976 37.8949 115.691 37.3626 114.743 36.415C113.795 35.4675 113.263 34.1823 113.263 32.8423V15.1581C113.263 13.818 113.795 12.5329 114.743 11.5853C115.691 10.6378 116.976 10.1054 118.316 10.1054H153.684ZM153.684 8.84229H118.316C116.641 8.84229 115.034 9.5077 113.85 10.6921C112.665 11.8766 112 13.483 112 15.1581V32.8423C112 34.5173 112.665 36.1238 113.85 37.3082C115.034 38.4927 116.641 39.1581 118.316 39.1581H153.684C155.359 39.1581 156.966 38.4927 158.15 37.3082C159.335 36.1238 160 34.5173 160 32.8423V15.1581C160 13.483 159.335 11.8766 158.15 10.6921C156.966 9.5077 155.359 8.84229 153.684 8.84229Z" fill="black" fill-opacity="0.4"/>
<path d="M137.503 21.1705C136.947 21.1854 136.408 21.364 135.952 21.6838C135.497 22.0036 135.146 22.4505 134.944 22.9687C134.741 23.4868 134.696 24.0532 134.813 24.597C134.931 25.1408 135.206 25.6378 135.605 26.026C136.003 26.4142 136.508 26.6762 137.054 26.7794C137.601 26.8826 138.166 26.8223 138.678 26.6061C139.191 26.3899 139.629 26.0273 139.936 25.5638C140.244 25.1003 140.408 24.5563 140.408 24C140.395 23.2406 140.082 22.5171 139.538 21.9872C138.994 21.4573 138.263 21.1637 137.503 21.1705ZM122.636 26.6779H123.621V21.3095H122.636V26.6779ZM120.842 21.9663C120.583 21.7514 120.288 21.5845 119.97 21.4737C119.626 21.3689 119.269 21.3136 118.909 21.3095H116.737V26.6779H118.796C119.142 26.6762 119.487 26.6251 119.819 26.5263C120.156 26.4158 120.472 26.2492 120.754 26.0337C121.044 25.8058 121.281 25.5169 121.448 25.1874C121.643 24.8227 121.739 24.4133 121.726 24C121.733 23.5916 121.651 23.1866 121.486 22.8126C121.334 22.488 121.114 22.1995 120.842 21.9663ZM120.488 24.8337C120.375 25.0582 120.211 25.2529 120.008 25.4021C119.791 25.5448 119.552 25.6514 119.301 25.7179C119.015 25.7841 118.723 25.818 118.429 25.8189H117.722V22.1811H118.619C118.9 22.1742 119.181 22.2082 119.453 22.2821C119.69 22.3433 119.913 22.4506 120.109 22.5979C120.299 22.7476 120.447 22.9433 120.539 23.1663C120.647 23.4306 120.699 23.7146 120.691 24C120.704 24.2884 120.643 24.5754 120.514 24.8337H120.488ZM127.575 23.8737C127.377 23.757 127.165 23.6678 126.943 23.6084L126.312 23.3937C126.141 23.3369 125.979 23.2561 125.832 23.1537C125.765 23.1069 125.712 23.0441 125.677 22.9713C125.642 22.8984 125.625 22.8177 125.629 22.7368C125.624 22.6248 125.655 22.514 125.718 22.4211C125.765 22.3326 125.834 22.2584 125.92 22.2063C126.007 22.1442 126.106 22.1012 126.21 22.08C126.32 22.0669 126.43 22.0669 126.539 22.08C126.725 22.0807 126.909 22.1149 127.082 22.1811C127.253 22.2422 127.399 22.3575 127.499 22.5095L128.219 21.7642C128.01 21.5706 127.759 21.4279 127.486 21.3474C127.213 21.2573 126.928 21.2105 126.64 21.2084C126.388 21.2101 126.138 21.2441 125.895 21.3095C125.658 21.3662 125.435 21.4692 125.238 21.6126C125.051 21.746 124.896 21.9185 124.783 22.1179C124.653 22.3348 124.592 22.5856 124.606 22.8379C124.593 23.1037 124.659 23.3673 124.796 23.5958C124.925 23.7817 125.093 23.9369 125.288 24.0505C125.487 24.168 125.699 24.2613 125.92 24.3284L126.552 24.5305C126.726 24.5946 126.889 24.6886 127.032 24.8084C127.132 24.9072 127.196 25.0367 127.215 25.1763C127.233 25.3159 127.204 25.4576 127.133 25.5789C127.082 25.6719 127.008 25.7502 126.918 25.8063C126.821 25.8704 126.715 25.9174 126.602 25.9453C126.489 25.9637 126.374 25.9637 126.261 25.9453C126.046 25.9448 125.834 25.8931 125.643 25.7942C125.452 25.6953 125.287 25.5522 125.162 25.3768L124.429 26.0842C124.648 26.3343 124.926 26.5254 125.238 26.64C125.559 26.7507 125.896 26.8062 126.236 26.8042C126.496 26.8033 126.755 26.7694 127.006 26.7032C127.237 26.6341 127.455 26.5274 127.65 26.3874C127.831 26.236 127.981 26.0517 128.093 25.8442C128.202 25.611 128.258 25.3564 128.257 25.0989C128.274 24.827 128.203 24.5567 128.055 24.3284C127.937 24.1465 127.782 23.9916 127.6 23.8737H127.575ZM147.368 24.3663H149.895V23.4947H147.368V22.2316H150.046V21.36H146.383V26.7284H150.173V25.8695H147.368V24.3663ZM153.848 24.3032C154.211 24.2694 154.548 24.103 154.796 23.8358C155.018 23.5563 155.134 23.2074 155.124 22.8505C155.134 22.5907 155.072 22.3332 154.947 22.1053C154.837 21.9107 154.681 21.746 154.493 21.6253C154.288 21.5097 154.066 21.4286 153.836 21.3853C153.582 21.3344 153.324 21.3091 153.065 21.3095H151.158V26.6779H152.143V24.4042H152.863L154.126 26.6779H155.314L153.848 24.3032ZM153.318 23.5705H152.13V22.1305H152.977H153.368C153.49 22.145 153.608 22.1747 153.722 22.2189C153.832 22.2657 153.924 22.3451 153.987 22.4463C154.065 22.5566 154.101 22.691 154.088 22.8253C154.1 22.9675 154.065 23.1096 153.987 23.2295C153.914 23.3315 153.813 23.4104 153.697 23.4568C153.562 23.5214 153.416 23.56 153.267 23.5705H153.318ZM132.577 25.7937C132.379 25.9012 132.158 25.9576 131.933 25.9579C131.664 25.9628 131.397 25.9111 131.149 25.8063C130.925 25.7089 130.723 25.5671 130.556 25.3895C130.389 25.2035 130.257 24.9897 130.164 24.7579C130.075 24.5022 130.033 24.2328 130.038 23.9621C130.026 23.7114 130.066 23.4609 130.155 23.2262C130.244 22.9915 130.381 22.7777 130.556 22.5979C130.721 22.42 130.924 22.2818 131.149 22.1937C131.397 22.0889 131.664 22.0372 131.933 22.0421C132.126 22.0449 132.318 22.079 132.501 22.1432C132.724 22.2425 132.922 22.389 133.082 22.5726L133.853 22.0295C133.612 21.7401 133.304 21.5145 132.956 21.3726C132.627 21.2391 132.275 21.1705 131.92 21.1705C131.52 21.1697 131.122 21.2381 130.745 21.3726C130.403 21.5038 130.089 21.7013 129.823 21.9537C129.562 22.2082 129.356 22.5134 129.217 22.8505C129.072 23.2251 128.999 23.6236 129.002 24.0253C128.999 24.4146 129.072 24.8007 129.217 25.1621C129.356 25.4954 129.562 25.7964 129.823 26.0463C130.086 26.3002 130.4 26.4942 130.745 26.6147C131.121 26.7555 131.519 26.824 131.92 26.8168C132.314 26.8185 132.705 26.7412 133.069 26.5895C133.43 26.4326 133.744 26.1845 133.979 25.8695L133.17 25.2632C133.016 25.4828 132.812 25.6643 132.577 25.7937ZM143.124 25.3768L141.621 21.3095H140.497L142.657 26.6779H143.579L145.802 21.3095H144.741L143.124 25.3768Z" fill="black" fill-opacity="0.4"/>
</g>
<g clip-path="url(#clip3_367_1141)">
<path d="M209.684 10.1054C211.024 10.1054 212.309 10.6378 213.257 11.5853C214.205 12.5329 214.737 13.818 214.737 15.1581V32.8423C214.737 34.1823 214.205 35.4675 213.257 36.415C212.309 37.3626 211.024 37.8949 209.684 37.8949H174.316C172.976 37.8949 171.691 37.3626 170.743 36.415C169.795 35.4675 169.263 34.1823 169.263 32.8423V15.1581C169.263 13.818 169.795 12.5329 170.743 11.5853C171.691 10.6378 172.976 10.1054 174.316 10.1054H209.684ZM209.684 8.84229H174.316C172.641 8.84229 171.034 9.5077 169.85 10.6921C168.665 11.8766 168 13.483 168 15.1581V32.8423C168 34.5173 168.665 36.1238 169.85 37.3082C171.034 38.4927 172.641 39.1581 174.316 39.1581H209.684C211.359 39.1581 212.966 38.4927 214.15 37.3082C215.335 36.1238 216 34.5173 216 32.8423V15.1581C216 13.483 215.335 11.8766 214.15 10.6921C212.966 9.5077 211.359 8.84229 209.684 8.84229Z" fill="black" fill-opacity="0.4"/>
<path d="M190.876 19.0484C189.974 18.4316 188.922 18.0725 187.831 18.0099C186.741 17.9472 185.654 18.1834 184.688 18.6929C183.722 19.2024 182.914 19.9659 182.349 20.9011C181.785 21.8364 181.487 22.9078 181.487 24C181.487 25.0922 181.785 26.1636 182.349 27.0989C182.914 28.0341 183.722 28.7976 184.688 29.3071C185.654 29.8166 186.741 30.0528 187.831 29.9901C188.922 29.9275 189.974 29.5684 190.876 28.9516C189.671 27.5836 189.006 25.8231 189.006 24C189.006 22.1769 189.671 20.4164 190.876 19.0484Z" fill="black" fill-opacity="0.4"/>
<path d="M196.497 30C199.811 30 202.497 27.3137 202.497 24C202.497 20.6863 199.811 18 196.497 18C193.183 18 190.497 20.6863 190.497 24C190.497 27.3137 193.183 30 196.497 30Z" fill="black" fill-opacity="0.4"/>
</g>
<g clip-path="url(#clip4_367_1141)">
<path d="M265.684 10.1054C267.024 10.1054 268.309 10.6378 269.257 11.5853C270.205 12.5329 270.737 13.818 270.737 15.1581V32.8423C270.737 34.1823 270.205 35.4675 269.257 36.415C268.309 37.3626 267.024 37.8949 265.684 37.8949H230.316C228.976 37.8949 227.691 37.3626 226.743 36.415C225.795 35.4675 225.263 34.1823 225.263 32.8423V15.1581C225.263 13.818 225.795 12.5329 226.743 11.5853C227.691 10.6378 228.976 10.1054 230.316 10.1054H265.684ZM265.684 8.84229H230.316C228.641 8.84229 227.034 9.5077 225.85 10.6921C224.665 11.8766 224 13.483 224 15.1581V32.8423C224 34.5173 224.665 36.1238 225.85 37.3082C227.034 38.4927 228.641 39.1581 230.316 39.1581H265.684C267.359 39.1581 268.966 38.4927 270.15 37.3082C271.335 36.1238 272 34.5173 272 32.8423V15.1581C272 13.483 271.335 11.8766 270.15 10.6921C268.966 9.5077 267.359 8.84229 265.684 8.84229Z" fill="black" fill-opacity="0.4"/>
<path d="M237.162 20.2103C236.914 19.967 236.616 19.7809 236.289 19.6653C235.962 19.5496 235.613 19.5071 235.267 19.5408H232.653C232.567 19.5399 232.484 19.5702 232.419 19.626C232.354 19.6817 232.311 19.7592 232.299 19.844L231.238 26.5261C231.234 26.557 231.237 26.5882 231.246 26.6179C231.255 26.6477 231.27 26.6752 231.291 26.6989C231.311 26.7226 231.335 26.7419 231.363 26.7556C231.391 26.7693 231.422 26.7772 231.453 26.7787H232.716C232.792 26.7792 232.867 26.7548 232.928 26.7092C232.99 26.6637 233.035 26.5994 233.057 26.5261L233.347 24.7071C233.36 24.6223 233.402 24.5449 233.467 24.4891C233.532 24.4334 233.615 24.4031 233.701 24.404H234.522C234.885 24.4441 235.252 24.4095 235.601 24.3025C235.95 24.1955 236.274 24.0182 236.552 23.7816C236.83 23.545 237.056 23.254 237.218 22.9266C237.379 22.5992 237.472 22.2423 237.491 21.8777C237.562 21.5927 237.569 21.2955 237.513 21.0073C237.456 20.7191 237.336 20.4469 237.162 20.2103ZM235.558 21.9661C235.419 22.9008 234.699 22.9008 234.017 22.9008H233.625L233.891 21.145C233.899 21.0936 233.925 21.0467 233.964 21.0122C234.003 20.9777 234.053 20.9577 234.105 20.9556H234.295C234.762 20.9556 235.204 20.9556 235.432 21.2335C235.506 21.3383 235.556 21.4586 235.578 21.5854C235.6 21.7122 235.593 21.8423 235.558 21.9661ZM243.061 21.9661H241.798C241.771 21.9644 241.745 21.9679 241.72 21.9765C241.694 21.9851 241.671 21.9986 241.651 22.0162C241.631 22.0338 241.615 22.0552 241.603 22.0791C241.592 22.103 241.585 22.129 241.583 22.1556V22.5092L241.495 22.3829C241.309 22.1861 241.08 22.0355 240.825 21.9434C240.571 21.8513 240.298 21.8201 240.029 21.8524C239.338 21.8658 238.674 22.1289 238.161 22.5932C237.648 23.0575 237.32 23.6917 237.238 24.3787C237.174 24.7156 237.183 25.0622 237.263 25.3954C237.344 25.7287 237.495 26.0409 237.705 26.3114C237.9 26.5306 238.143 26.7026 238.414 26.8142C238.685 26.9258 238.979 26.9741 239.272 26.9556C239.594 26.9585 239.913 26.8962 240.21 26.7725C240.508 26.6488 240.777 26.4661 241.002 26.2356V26.5766C240.997 26.6078 240.998 26.6399 241.006 26.6705C241.014 26.7011 241.029 26.7295 241.05 26.7536C241.07 26.7778 241.096 26.7971 241.125 26.8101C241.154 26.8232 241.185 26.8297 241.217 26.8292H242.341C242.427 26.8301 242.51 26.7999 242.575 26.7441C242.64 26.6884 242.682 26.6109 242.695 26.5261L243.364 22.2187C243.39 22.1769 243.401 22.1275 243.394 22.0788C243.388 22.0301 243.365 21.985 243.33 21.951C243.295 21.917 243.248 21.8962 243.2 21.8921C243.151 21.8879 243.102 21.9007 243.061 21.9282V21.9661ZM241.318 24.3787C241.269 24.7167 241.098 25.0252 240.837 25.2461C240.577 25.4671 240.245 25.5854 239.903 25.5787C239.747 25.5883 239.592 25.5626 239.447 25.5036C239.303 25.4445 239.174 25.3536 239.069 25.2377C238.974 25.1136 238.907 24.9703 238.872 24.8177C238.837 24.665 238.835 24.5067 238.867 24.3535C238.905 24.0073 239.068 23.687 239.327 23.4539C239.586 23.2209 239.921 23.0914 240.269 23.0903C240.426 23.0832 240.582 23.1113 240.726 23.1725C240.871 23.2337 240.999 23.3265 241.103 23.444C241.208 23.573 241.282 23.7243 241.319 23.8864C241.356 24.0484 241.356 24.2169 241.318 24.3787ZM249.705 21.9282H248.442C248.382 21.9274 248.322 21.9421 248.269 21.9709C248.216 21.9996 248.171 22.0414 248.139 22.0924L246.408 24.6187L245.676 22.1556C245.652 22.0799 245.605 22.0136 245.542 21.966C245.478 21.9184 245.401 21.8919 245.322 21.8903H244.059C244.024 21.8909 243.99 21.8995 243.959 21.9155C243.928 21.9315 243.901 21.9544 243.88 21.9825C243.859 22.0106 243.845 22.0431 243.839 22.0775C243.833 22.1119 243.834 22.1473 243.844 22.1808L245.234 26.2735L243.971 28.1177C243.947 28.1499 243.933 28.1881 243.93 28.2278C243.927 28.2676 243.935 28.3074 243.954 28.3429C243.972 28.3783 244 28.4079 244.034 28.4283C244.068 28.4488 244.107 28.4593 244.147 28.4587H245.411C245.47 28.4597 245.528 28.4465 245.581 28.4201C245.633 28.3937 245.679 28.355 245.714 28.3071L249.882 22.2314C249.896 22.2001 249.903 22.1658 249.901 22.1314C249.9 22.0971 249.89 22.0636 249.872 22.0339C249.855 22.0042 249.831 21.9791 249.802 21.9607C249.773 21.9423 249.74 21.9312 249.705 21.9282ZM255.756 20.2103C255.508 19.967 255.21 19.7809 254.883 19.6653C254.555 19.5496 254.207 19.5071 253.861 19.5408H251.246C251.161 19.5399 251.078 19.5702 251.013 19.626C250.947 19.6817 250.905 19.7592 250.893 19.844L249.844 26.5261C249.839 26.5573 249.84 26.5893 249.848 26.6199C249.856 26.6505 249.871 26.6789 249.892 26.7031C249.912 26.7272 249.938 26.7465 249.967 26.7596C249.996 26.7727 250.027 26.7792 250.059 26.7787H251.398C251.457 26.7791 251.515 26.7573 251.559 26.7176C251.604 26.6779 251.632 26.6232 251.638 26.564L251.941 24.6566C251.953 24.5718 251.996 24.4943 252.061 24.4386C252.126 24.3828 252.209 24.3526 252.295 24.3535H253.128C253.491 24.3917 253.857 24.3558 254.206 24.2481C254.554 24.1403 254.877 23.963 255.154 23.7267C255.432 23.4904 255.659 23.2002 255.821 22.8737C255.983 22.5472 256.077 22.1911 256.097 21.8271C256.156 21.5488 256.157 21.261 256.098 20.9825C256.039 20.704 255.923 20.4409 255.756 20.2103ZM254.164 22.004C254.013 22.9387 253.305 22.9387 252.611 22.9387H252.219L252.497 21.1829C252.498 21.1564 252.505 21.1304 252.517 21.1065C252.529 21.0826 252.545 21.0612 252.565 21.0436C252.585 21.026 252.608 21.0125 252.633 21.0039C252.658 20.9953 252.685 20.9917 252.712 20.9935H252.888C253.356 20.9935 253.811 20.9935 254.038 21.2714C254.107 21.3716 254.154 21.4854 254.176 21.6051C254.198 21.7249 254.194 21.8479 254.164 21.9661V22.004ZM261.655 22.004H260.392C260.339 22.0036 260.288 22.0227 260.248 22.0577C260.208 22.0927 260.183 22.141 260.177 22.1935V22.5471L260.088 22.4208C259.9 22.2238 259.669 22.0732 259.412 21.9811C259.156 21.8891 258.881 21.858 258.611 21.8903C257.92 21.9089 257.259 22.1738 256.747 22.6371C256.235 23.1004 255.906 23.7316 255.819 24.4166C255.755 24.7535 255.764 25.1001 255.844 25.4333C255.925 25.7666 256.076 26.0788 256.286 26.3492C256.483 26.5695 256.728 26.742 257.001 26.8536C257.275 26.9652 257.57 27.013 257.865 26.9935C258.187 26.9964 258.507 26.9341 258.804 26.8104C259.102 26.6867 259.371 26.504 259.596 26.2735V26.6145C259.59 26.6457 259.592 26.6778 259.6 26.7084C259.608 26.739 259.623 26.7674 259.644 26.7915C259.664 26.8157 259.69 26.835 259.719 26.848C259.747 26.8611 259.779 26.8676 259.811 26.8671H260.935C261.02 26.868 261.103 26.8378 261.169 26.782C261.234 26.7263 261.276 26.6488 261.288 26.564L261.895 22.1808C261.898 22.1478 261.895 22.1144 261.884 22.0829C261.874 22.0514 261.857 22.0226 261.834 21.9985C261.811 21.9744 261.783 21.9557 261.752 21.9435C261.721 21.9314 261.688 21.9261 261.655 21.9282V22.004ZM259.912 24.3787C259.868 24.7168 259.7 25.0267 259.441 25.2484C259.182 25.4701 258.85 25.5878 258.509 25.5787C258.352 25.5893 258.194 25.5641 258.047 25.5051C257.901 25.446 257.769 25.3546 257.663 25.2377C257.569 25.1129 257.504 24.9692 257.471 24.8165C257.438 24.6638 257.439 24.5058 257.474 24.3535C257.508 24.0083 257.669 23.6882 257.926 23.4549C258.182 23.2216 258.516 23.0917 258.863 23.0903C259.023 23.0791 259.184 23.1061 259.331 23.1692C259.479 23.2323 259.609 23.3295 259.711 23.453C259.814 23.5764 259.885 23.7224 259.92 23.879C259.955 24.0356 259.952 24.1982 259.912 24.3535V24.3787ZM264.547 19.5029H263.284C263.234 19.5045 263.186 19.5227 263.147 19.5547C263.108 19.5867 263.081 19.6307 263.069 19.6798L262.059 26.5261C262.053 26.5573 262.055 26.5893 262.063 26.6199C262.071 26.6505 262.086 26.6789 262.107 26.7031C262.127 26.7272 262.153 26.7465 262.182 26.7596C262.211 26.7727 262.242 26.7792 262.274 26.7787H263.347C263.433 26.7796 263.516 26.7493 263.581 26.6936C263.646 26.6378 263.689 26.5604 263.701 26.4756L264.762 19.7429C264.764 19.7131 264.76 19.6831 264.75 19.6549C264.74 19.6267 264.725 19.6007 264.705 19.5784C264.685 19.5561 264.66 19.5379 264.633 19.525C264.607 19.512 264.577 19.5045 264.547 19.5029Z" fill="black" fill-opacity="0.4"/>
</g>
<g clip-path="url(#clip5_367_1141)">
<path d="M321.684 10.1054C323.024 10.1054 324.309 10.6378 325.257 11.5853C326.205 12.5329 326.737 13.818 326.737 15.1581V32.8423C326.737 34.1823 326.205 35.4675 325.257 36.415C324.309 37.3626 323.024 37.8949 321.684 37.8949H286.316C284.976 37.8949 283.691 37.3626 282.743 36.415C281.795 35.4675 281.263 34.1823 281.263 32.8423V15.1581C281.263 13.818 281.795 12.5329 282.743 11.5853C283.691 10.6378 284.976 10.1054 286.316 10.1054H321.684ZM321.684 8.84229H286.316C284.641 8.84229 283.034 9.5077 281.85 10.6921C280.665 11.8766 280 13.483 280 15.1581V32.8423C280 34.5173 280.665 36.1238 281.85 37.3082C283.034 38.4927 284.641 39.1581 286.316 39.1581H321.684C323.359 39.1581 324.966 38.4927 326.15 37.3082C327.335 36.1238 328 34.5173 328 32.8423V15.1581C328 13.483 327.335 11.8766 326.15 10.6921C324.966 9.5077 323.359 8.84229 321.684 8.84229Z" fill="black" fill-opacity="0.4"/>
<path d="M299.907 19.6545L296.282 28.3577H293.895L292.139 21.4735C292.125 21.3101 292.068 21.1532 291.975 21.0181C291.882 20.8831 291.756 20.7745 291.608 20.7029C290.908 20.3676 290.17 20.1174 289.411 19.9577V19.705H293.2C293.451 19.708 293.692 19.7997 293.882 19.9639C294.072 20.128 294.197 20.3541 294.236 20.6019L295.171 25.6545L297.495 19.7303L299.907 19.6545ZM309.166 25.5156C309.166 23.2292 306.008 23.1029 306.034 22.0671C306.034 21.764 306.337 21.4229 306.981 21.3471C307.739 21.2704 308.503 21.4014 309.192 21.7261L309.583 19.8819C308.911 19.636 308.202 19.5078 307.486 19.5029C305.276 19.5029 303.697 20.6777 303.697 22.3829C303.697 23.6461 304.808 24.3282 305.655 24.745C306.501 25.1619 306.817 25.4524 306.817 25.8314C306.817 26.4124 306.122 26.665 305.478 26.6777C304.677 26.6988 303.885 26.5116 303.179 26.1345L302.737 28.0419C303.543 28.3517 304.4 28.506 305.263 28.4966C307.613 28.4966 309.141 27.3345 309.154 25.5156H309.166ZM314.989 28.3577H317.048L315.255 19.6545H313.36C313.154 19.6543 312.953 19.7155 312.782 19.8302C312.611 19.945 312.478 20.1081 312.4 20.2987L309.053 28.3577H311.402L311.857 27.0945H314.724L314.989 28.3577ZM312.463 25.2756L313.651 22.0166L314.358 25.2629L312.463 25.2756ZM303.065 19.6545L301.221 28.3577H299.023L300.867 19.6545H303.065Z" fill="black" fill-opacity="0.4"/>
</g>
<defs>
<clipPath id="clip0_367_1141">
<rect width="48" height="48" fill="white"/>
</clipPath>
<clipPath id="clip1_367_1141">
<rect width="48" height="48" fill="white" transform="translate(56)"/>
</clipPath>
<clipPath id="clip2_367_1141">
<rect width="48" height="48" fill="white" transform="translate(112)"/>
</clipPath>
<clipPath id="clip3_367_1141">
<rect width="48" height="48" fill="white" transform="translate(168)"/>
</clipPath>
<clipPath id="clip4_367_1141">
<rect width="48" height="48" fill="white" transform="translate(224)"/>
</clipPath>
<clipPath id="clip5_367_1141">
<rect width="48" height="48" fill="white" transform="translate(280)"/>
</clipPath>
</defs>
</svg>
