<svg width="60" height="60" viewBox="0 0 60 60" fill="none" xmlns="http://www.w3.org/2000/svg">
<path d="M30 45C40 45 42.5 35 42.5 35H17.5C17.5 35 20 45 30 45Z" fill="url(#paint0_linear_367_1047)"/>
<path d="M30 55C43.785 55 55 43.785 55 30C55 16.215 43.785 5 30 5C16.215 5 5 16.215 5 30C5 43.785 16.215 55 30 55ZM30 10C41.0275 10 50 18.9725 50 30C50 41.0275 41.0275 50 30 50C18.9725 50 10 41.0275 10 30C10 18.9725 18.9725 10 30 10Z" fill="url(#paint1_linear_367_1047)"/>
<path d="M21.3374 31.585L26.4624 26.3775C26.8109 26.029 27.0866 25.6146 27.2733 25.1584C27.46 24.7022 27.554 24.2134 27.5498 23.7205C27.5457 23.2277 27.4434 22.7405 27.2489 22.2876C27.0545 21.8347 26.7718 21.425 26.4174 21.0825C25.7346 20.4041 24.8156 20.0163 23.8532 20.0004C22.8908 19.9846 21.9596 20.3419 21.2549 20.9975C20.5396 20.3503 19.6008 20.0063 18.6368 20.038C17.6727 20.0697 16.7586 20.4747 16.0874 21.1675C14.6224 22.6675 14.6399 24.9925 16.1349 26.46L21.3374 31.585ZM38.8374 31.585L43.9624 26.3775C44.3109 26.029 44.5866 25.6146 44.7733 25.1584C44.96 24.7022 45.054 24.2134 45.0498 23.7205C45.0457 23.2277 44.9434 22.7405 44.7489 22.2876C44.5545 21.8347 44.2718 21.425 43.9174 21.0825C43.2346 20.4041 42.3156 20.0163 41.3532 20.0004C40.3908 19.9846 39.4596 20.3419 38.7549 20.9975C38.0397 20.3492 37.1007 20.0043 36.136 20.0356C35.1713 20.0668 34.2565 20.4718 33.5849 21.165C32.1199 22.665 32.1374 24.99 33.6324 26.4575L38.8374 31.585Z" fill="url(#paint2_linear_367_1047)"/>
<defs>
<linearGradient id="paint0_linear_367_1047" x1="17.5" y1="45" x2="43.1782" y2="42.7542" gradientUnits="userSpaceOnUse">
<stop stop-color="#12C2E9"/>
<stop offset="0.526042" stop-color="#C471ED"/>
<stop offset="1" stop-color="#F64F59"/>
</linearGradient>
<linearGradient id="paint1_linear_367_1047" x1="5" y1="55" x2="56.6859" y2="53.1918" gradientUnits="userSpaceOnUse">
<stop stop-color="#12C2E9"/>
<stop offset="0.526042" stop-color="#C471ED"/>
<stop offset="1" stop-color="#F64F59"/>
</linearGradient>
<linearGradient id="paint2_linear_367_1047" x1="15.001" y1="31.585" x2="45.8472" y2="28.786" gradientUnits="userSpaceOnUse">
<stop stop-color="#12C2E9"/>
<stop offset="0.526042" stop-color="#C471ED"/>
<stop offset="1" stop-color="#F64F59"/>
</linearGradient>
</defs>
</svg>
