<svg width="74" height="24" viewBox="0 0 74 24" fill="none" xmlns="http://www.w3.org/2000/svg">
<path fill-rule="evenodd" clip-rule="evenodd" d="M27.1309 20C27.1309 22.2091 28.9217 24 31.1309 24H53.3917C55.6009 24 57.3917 22.2091 57.3917 20V4C57.3917 1.79086 55.6009 0 53.3917 0H31.1309C28.9217 0 27.1309 1.79086 27.1309 4V20ZM6.09367 19.8261C5.08631 19.8261 4.03767 19.6362 2.94775 19.2564C1.85782 18.8765 0.875242 18.2985 0 17.5224L2.42756 14.5994C3.00555 15.0618 3.62482 15.4416 4.28538 15.7389C4.96246 16.0196 5.59825 16.16 6.19275 16.16C6.8368 16.16 7.29919 16.0609 7.57993 15.8627C7.87718 15.6646 8.0258 15.3838 8.0258 15.0205C8.0258 14.6407 7.82763 14.3517 7.4313 14.1535C7.05148 13.9554 6.52303 13.7242 5.84595 13.4599L3.8395 12.6177C2.98078 12.2709 2.22113 11.726 1.56057 10.9828C0.916527 10.2397 0.594504 9.29016 0.594504 8.13418C0.594504 7.20939 0.850471 6.37544 1.3624 5.63231C1.87434 4.87266 2.57618 4.2699 3.46794 3.82402C4.37621 3.36163 5.41659 3.13043 6.58909 3.13043C7.51387 3.13043 8.44691 3.31209 9.38821 3.6754C10.346 4.02219 11.1965 4.5589 11.9396 5.28551L9.80931 7.96078C9.26435 7.58096 8.7359 7.29196 8.22397 7.09379C7.72855 6.89563 7.18359 6.79654 6.58909 6.79654C6.07715 6.79654 5.6643 6.88737 5.35054 7.06902C5.05328 7.25068 4.90466 7.52316 4.90466 7.88647C4.90466 8.26629 5.11934 8.56354 5.5487 8.77822C5.97807 8.97639 6.55606 9.21584 7.28267 9.49658L9.23958 10.2645C10.2469 10.6608 11.0231 11.214 11.5681 11.9241C12.113 12.6342 12.3855 13.5508 12.3855 14.6737C12.3855 15.582 12.1378 16.4325 11.6424 17.2251C11.1635 18.0013 10.4534 18.6288 9.51206 19.1077C8.57077 19.5866 7.4313 19.8261 6.09367 19.8261ZM14.9729 19.5288V3.42769H19.2335V15.9618H23.5437C24.5287 15.9618 25.3272 16.7603 25.3272 17.7453C25.3272 18.7303 24.5287 19.5288 23.5437 19.5288H14.9729ZM31.2387 16.5288C31.2387 18.1857 32.5819 19.5288 34.2387 19.5288H40.1068C41.0918 19.5288 41.8903 18.7303 41.8903 17.7453C41.8903 16.7603 41.0918 15.9618 40.1068 15.9618H36.9361C36.1426 15.9618 35.4994 15.3186 35.4994 14.5251C35.4994 13.7316 36.1426 13.0884 36.9361 13.0884H38.9673C39.9523 13.0884 40.7508 12.2899 40.7508 11.3049C40.7508 10.3199 39.9523 9.52135 38.9673 9.52135H36.7627C36.065 9.52135 35.4994 8.95574 35.4994 8.25803C35.4994 7.56032 36.065 6.99471 36.7627 6.99471H39.8591C40.8441 6.99471 41.6426 6.19621 41.6426 5.2112C41.6426 4.22619 40.8441 3.42769 39.859 3.42769H34.2387C32.5819 3.42769 31.2387 4.77083 31.2387 6.42769V16.5288ZM59.8109 19.5288V3.42769H64.0715V9.42227H64.1706L68.2331 3.42769H72.89L68.0844 9.96723L73.8313 19.5288H69.1744L65.6073 13.3361L64.0715 15.5159V19.5288H59.8109ZM53.5684 6.42769C53.5684 4.77084 52.2252 3.42769 50.5684 3.42769L44.7003 3.42769C43.7153 3.42769 42.9168 4.2262 42.9168 5.2112C42.9168 6.19621 43.7153 6.99472 44.7003 6.99472L47.871 6.99472C48.6645 6.99472 49.3077 7.63796 49.3077 8.43143C49.3077 9.22491 48.6645 9.86815 47.871 9.86815H45.8398C44.8548 9.86815 44.0563 10.6667 44.0563 11.6517C44.0563 12.6367 44.8548 13.4352 45.8398 13.4352H48.0444C48.7421 13.4352 49.3077 14.0008 49.3077 14.6985C49.3077 15.3962 48.7421 15.9618 48.0444 15.9618H44.9481C43.963 15.9618 43.1645 16.7603 43.1645 17.7453C43.1645 18.7303 43.963 19.5288 44.9481 19.5288H50.5684C52.2252 19.5288 53.5684 18.1857 53.5684 16.5288V6.42769Z" fill="black"/>
</svg>
