<svg width="60" height="60" viewBox="0 0 60 60" fill="none" xmlns="http://www.w3.org/2000/svg">
<path d="M28.7204 54.385C29.4554 54.7775 30.3779 54.775 31.1129 54.3825C51.1429 43.6225 52.5654 22.6 52.5479 16.6225C52.546 16.1421 52.404 15.6727 52.1394 15.2717C51.8747 14.8707 51.4989 14.5556 51.0579 14.365L30.9329 5.45002C30.6126 5.30885 30.2664 5.23614 29.9164 5.23657C29.5664 5.237 29.2203 5.31056 28.9004 5.45252L8.91538 14.3675C8.48087 14.5582 8.11034 14.8698 7.84794 15.2652C7.58555 15.6606 7.44234 16.1231 7.43538 16.5975C7.35038 22.545 8.54788 43.6125 28.7204 54.385ZM21.6854 25.7325L27.4179 31.465L38.1504 20.7325L41.6854 24.2675L27.4179 38.535L18.1504 29.2675L21.6854 25.7325Z" fill="url(#paint0_linear_367_1035)"/>
<defs>
<linearGradient id="paint0_linear_367_1035" x1="7.43164" y1="54.6781" x2="54.0788" y2="53.189" gradientUnits="userSpaceOnUse">
<stop stop-color="#12C2E9"/>
<stop offset="0.526042" stop-color="#C471ED"/>
<stop offset="1" stop-color="#F64F59"/>
</linearGradient>
</defs>
</svg>
