<svg width="100" height="100" viewBox="0 0 100 100" fill="none" xmlns="http://www.w3.org/2000/svg">
<path d="M91.5958 57.5874L83.8833 15.1708C83.5348 13.2514 82.5232 11.5154 81.0253 10.2657C79.5274 9.01608 77.6382 8.33213 75.6875 8.33325H24.3125C22.3603 8.33314 20.47 9.01841 18.9714 10.2695C17.4727 11.5207 16.461 13.2582 16.1125 15.1791L8.40415 57.5874L8.48331 57.5999C8.43331 57.8499 8.33331 58.0749 8.33331 58.3333V79.1666C8.33331 83.7624 12.0708 87.4999 16.6666 87.4999H83.3333C87.9291 87.4999 91.6666 83.7624 91.6666 79.1666V58.3333C91.6666 58.0708 91.5666 57.8499 91.5208 57.5999L91.5958 57.5874ZM24.3125 16.6666H75.6916L82.5125 54.1666H17.4916L24.3125 16.6666ZM16.6666 79.1666V62.4999H83.3333L83.3416 79.1666H16.6666Z" fill="url(#paint0_linear_367_1099)"/>
<path d="M70.8333 66.6667H79.1667V75.0001H70.8333V66.6667ZM58.3333 66.6667H66.6666V75.0001H58.3333V66.6667Z" fill="url(#paint1_linear_367_1099)"/>
<defs>
<linearGradient id="paint0_linear_367_1099" x1="8.33331" y1="87.4999" x2="94.4651" y2="84.3281" gradientUnits="userSpaceOnUse">
<stop stop-color="#12C2E9"/>
<stop offset="0.526042" stop-color="#C471ED"/>
<stop offset="1" stop-color="#F64F59"/>
</linearGradient>
<linearGradient id="paint1_linear_367_1099" x1="58.3333" y1="75.0001" x2="79.7318" y2="73.1286" gradientUnits="userSpaceOnUse">
<stop stop-color="#12C2E9"/>
<stop offset="0.526042" stop-color="#C471ED"/>
<stop offset="1" stop-color="#F64F59"/>
</linearGradient>
</defs>
</svg>
